<?xml version="1.0" encoding="UTF-8" standalone="no"?>
<!DOCTYPE svg PUBLIC "-//W3C//DTD SVG 1.1//EN" "http://www.w3.org/Graphics/SVG/1.1/DTD/svg11.dtd">
<svg version="1.1" xmlns="http://www.w3.org/2000/svg" xmlns:xlink="http://www.w3.org/1999/xlink" preserveAspectRatio="xMidYMid meet" viewBox="0 0 890 300" width="890" height="300"><defs><path d="M113.96 17.47C98.26 8.77 88.45 3.34 84.52 1.17C84.29 1.04 84.03 0.98 83.77 1C78.07 1.38 63.82 2.32 41.03 3.84L24.96 23.81L32.19 68.56L73.08 120.26L74.58 143.6L56.84 159.16L27.65 156.76C13 133.21 3.84 118.49 0.17 112.6C0.12 112.52 -0.01 112.56 0 112.66C0.95 122.83 3.34 148.25 7.17 188.93L79.8 188.93L106.56 145.73L93.15 99.93L58.25 64.1L58.25 35.87L82.19 32.48L125.64 69.57L113.96 17.47Z" id="cTxhU33kU"></path><mask id="maskhMgvzihjM" x="-2" y="-1" width="129.64" height="191.93" maskUnits="userSpaceOnUse"><rect x="-2" y="-1" width="129.64" height="191.93" fill="white"></rect><use xlink:href="#cTxhU33kU" opacity="1" fill="black"></use></mask><path d="" id="a788VZpSNQ"></path><mask id="maska7pO1TVYWE" x="200.93" y="25.05" width="4" height="4" maskUnits="userSpaceOnUse"><rect x="200.93" y="25.05" width="4" height="4" fill="white"></rect><use xlink:href="#a788VZpSNQ" opacity="1" fill="black"></use></mask><path d="M113.1 105.21L190.17 105.21L190.17 170.78L172.68 193L136.62 193L132.08 262.01L108.73 293.86L113.1 105.21Z" id="c3CsSe1g4P"></path><mask id="maskc1d5kXVZh4" x="106.73" y="103.21" width="85.44" height="192.65" maskUnits="userSpaceOnUse"><rect x="106.73" y="103.21" width="85.44" height="192.65" fill="white"></rect><use xlink:href="#c3CsSe1g4P" opacity="1" fill="black"></use></mask><path d="M165.45 137.1L165.45 161.34L140.59 167.39L142.1 141.17L165.45 137.1Z" id="dAx118wPO"></path><mask id="maska16HSABGft" x="138.59" y="135.1" width="28.86" height="34.29" maskUnits="userSpaceOnUse"><rect x="138.59" y="135.1" width="28.86" height="34.29" fill="white"></rect><use xlink:href="#dAx118wPO" opacity="1" fill="black"></use></mask><path d="M362.25 188.93L341.02 188.93L333.32 178.66L306.66 178.66L301.75 188.93L281.71 188.93L318.73 101.13L362.25 188.93Z" id="aEH2hqMY1"></path><mask id="maskc3FaAz4uCu" x="279.71" y="99.13" width="84.54" height="91.8" maskUnits="userSpaceOnUse"><rect x="279.71" y="99.13" width="84.54" height="91.8" fill="white"></rect><use xlink:href="#aEH2hqMY1" opacity="1" fill="black"></use></mask><path d="M325.26 162.95L313.87 162.95L319.13 150.45L325.26 162.95Z" id="b3WaWFI7k"></path><mask id="maska1vWHbxLgk" x="311.87" y="148.45" width="15.38" height="16.5" maskUnits="userSpaceOnUse"><rect x="311.87" y="148.45" width="15.38" height="16.5" fill="white"></rect><use xlink:href="#b3WaWFI7k" opacity="1" fill="black"></use></mask><path d="" id="avAnxRGmG"></path><mask id="maske17LFcEq7h" x="200.93" y="108.91" width="4" height="4" maskUnits="userSpaceOnUse"><rect x="200.93" y="108.91" width="4" height="4" fill="white"></rect><use xlink:href="#avAnxRGmG" opacity="1" fill="black"></use></mask><path d="M107.97 37.6C105.42 34.84 103.83 33.12 103.2 32.43C103.15 32.38 103.07 32.43 103.1 32.5C104.24 34.93 107.41 41.67 108.53 44.05C108.58 44.16 108.75 44.11 108.73 43.99C108.63 43.14 108.38 41.01 107.97 37.6Z" id="abjbVbNj4"></path><mask id="maskcfB1vP4QJ" x="101.09" y="30.41" width="9.64" height="15.7" maskUnits="userSpaceOnUse"><rect x="101.09" y="30.41" width="9.64" height="15.7" fill="white"></rect><use xlink:href="#abjbVbNj4" opacity="1" fill="black"></use></mask><path d="M386.38 9.15C386.92 27.69 387.42 44.87 387.88 60.71C388.34 76.55 388.76 90.62 389.15 102.93L446.88 24.49L486.87 58.51L443.86 51.84L462.61 81.22L429.96 69.12L440.83 99.04L415.74 83.77L389.15 116.87L413.73 137.18L429.96 133.39L424.66 155.68L450.16 145.09L439.54 167.35L475.72 155.68L445.87 188.93L407.62 151.48L389.15 133.39L391.54 178.95L400 188.93L368.98 188.93L368.98 32.55L386.38 9.15Z" id="c26ZCoFggp"></path><mask id="maskd4VWBlv7P1" x="366.98" y="7.15" width="121.9" height="183.77" maskUnits="userSpaceOnUse"><rect x="366.98" y="7.15" width="121.9" height="183.77" fill="white"></rect><use xlink:href="#c26ZCoFggp" opacity="1" fill="black"></use></mask><path d="M383.09 116.08L383.09 108.12L376.04 106.44L383.09 116.08Z" id="b2QcSEEuuY"></path><mask id="maskaJaQCZgqf" x="374.04" y="104.44" width="11.06" height="13.64" maskUnits="userSpaceOnUse"><rect x="374.04" y="104.44" width="11.06" height="13.64" fill="white"></rect><use xlink:href="#b2QcSEEuuY" opacity="1" fill="black"></use></mask><path d="M709.99 188.93L645.83 188.93L645.83 101.13C679.54 101.13 700.61 101.13 709.04 101.13C709.57 101.13 709.99 101.56 709.99 102.08C709.99 113.66 709.99 142.61 709.99 188.93Z" id="d43HqQdipX"></path><mask id="maskaqcYErh1r" x="643.83" y="99.13" width="68.17" height="91.8" maskUnits="userSpaceOnUse"><rect x="643.83" y="99.13" width="68.17" height="91.8" fill="white"></rect><use xlink:href="#d43HqQdipX" opacity="1" fill="black"></use></mask><path d="M687.2 115.45L687.2 143.25L668.87 149.06L668.87 115.45L687.2 115.45Z" id="a1rIoJMAGD"></path><mask id="maskenEyEs9kc" x="666.87" y="113.45" width="22.33" height="37.61" maskUnits="userSpaceOnUse"><rect x="666.87" y="113.45" width="22.33" height="37.61" fill="white"></rect><use xlink:href="#a1rIoJMAGD" opacity="1" fill="black"></use></mask><path d="M803.24 101.13L764.76 148.17L801.19 188.93L761.73 188.93L742.76 162.36L742.76 188.93L723.17 188.93L723.17 101.13L803.24 101.13Z" id="c5Q5jrFMk6"></path><mask id="maskb2agLHu499" x="721.17" y="99.13" width="84.07" height="91.8" maskUnits="userSpaceOnUse"><rect x="721.17" y="99.13" width="84.07" height="91.8" fill="white"></rect><use xlink:href="#c5Q5jrFMk6" opacity="1" fill="black"></use></mask><path d="M764.72 114.86L742.61 145.03L742.61 114.86L764.72 114.86Z" id="a5VyHYzQU9"></path><mask id="maskb104wSXZJB" x="740.61" y="112.86" width="26.11" height="34.17" maskUnits="userSpaceOnUse"><rect x="740.61" y="112.86" width="26.11" height="34.17" fill="white"></rect><use xlink:href="#a5VyHYzQU9" opacity="1" fill="black"></use></mask><path d="M878.83 101.13L831.47 130.87L865.08 143.84L831.47 162.95L888 188.93L813.14 188.93L813.14 101.13L878.83 101.13Z" id="g2Fr2Xr344"></path><mask id="maskb3rLWT2iEi" x="811.14" y="99.13" width="78.86" height="91.8" maskUnits="userSpaceOnUse"><rect x="811.14" y="99.13" width="78.86" height="91.8" fill="white"></rect><use xlink:href="#g2Fr2Xr344" opacity="1" fill="black"></use></mask><path d="M549.27 100.91L594.86 30.87L633.05 188.93L567.36 113.3L547.5 140.25L524.58 109.09L484.86 188.93L507.77 21.49L549.27 100.91Z" id="bJIYJR2mR"></path><mask id="maskdMBmly7GB" x="482.86" y="19.49" width="152.2" height="171.44" maskUnits="userSpaceOnUse"><rect x="482.86" y="19.49" width="152.2" height="171.44" fill="white"></rect><use xlink:href="#bJIYJR2mR" opacity="1" fill="black"></use></mask><path d="M510.83 89.18L528.47 92.17C528.3 92.01 528.2 91.91 528.16 91.87C523.48 87.51 516.61 86.44 510.83 89.18C510.83 89.18 510.83 89.18 510.83 89.18Z" id="aIy0tL3Zt"></path><mask id="maskd3wnqRnXOh" x="508.83" y="85.68" width="21.65" height="8.49" maskUnits="userSpaceOnUse"><rect x="508.83" y="85.68" width="21.65" height="8.49" fill="white"></rect><use xlink:href="#aIy0tL3Zt" opacity="1" fill="black"></use></mask><path d="M573.01 94.27L587.46 94.27C586.66 93.72 586.16 93.37 585.96 93.23C581.94 90.45 576.53 90.89 573.01 94.27C573.01 94.27 573.01 94.27 573.01 94.27Z" id="b3wflGUnsN"></path><mask id="maskf8t9vV0v" x="571.01" y="89.41" width="18.45" height="6.86" maskUnits="userSpaceOnUse"><rect x="571.01" y="89.41" width="18.45" height="6.86" fill="white"></rect><use xlink:href="#b3wflGUnsN" opacity="1" fill="black"></use></mask><path d="" id="a7piWQZ7ZG"></path><mask id="maskedelQWfRv" x="533.81" y="125.62" width="4" height="4" maskUnits="userSpaceOnUse"><rect x="533.81" y="125.62" width="4" height="4" fill="white"></rect><use xlink:href="#a7piWQZ7ZG" opacity="1" fill="black"></use></mask><path d="M268.62 101.13L221.26 130.87L254.87 143.84L221.26 162.95L277.79 188.93L202.93 188.93L202.93 101.13L268.62 101.13Z" id="a5tu9xj7Eg"></path><mask id="maski2GfgJDGZ7" x="200.93" y="99.13" width="78.86" height="91.8" maskUnits="userSpaceOnUse"><rect x="200.93" y="99.13" width="78.86" height="91.8" fill="white"></rect><use xlink:href="#a5tu9xj7Eg" opacity="1" fill="black"></use></mask></defs><g><g><g><use xlink:href="#cTxhU33kU" opacity="1" fill="#2054ff" fill-opacity="1"></use><g mask="url(#maskhMgvzihjM)"><use xlink:href="#cTxhU33kU" opacity="1" fill-opacity="0" stroke="#000000" stroke-width="2" stroke-opacity="1"></use></g></g><g><g mask="url(#maska7pO1TVYWE)"><use xlink:href="#a788VZpSNQ" opacity="1" fill-opacity="0" stroke="#000000" stroke-width="2" stroke-opacity="1"></use></g></g><g><g><use xlink:href="#c3CsSe1g4P" opacity="1" fill="#ff1010" fill-opacity="1"></use><g mask="url(#maskc1d5kXVZh4)"><use xlink:href="#c3CsSe1g4P" opacity="1" fill-opacity="0" stroke="#000000" stroke-width="2" stroke-opacity="1"></use></g></g><g><use xlink:href="#dAx118wPO" opacity="1" fill="#ffffff" fill-opacity="1"></use><g mask="url(#maska16HSABGft)"><use xlink:href="#dAx118wPO" opacity="1" fill-opacity="0" stroke="#000000" stroke-width="2" stroke-opacity="1"></use></g></g></g><g><g><use xlink:href="#aEH2hqMY1" opacity="1" fill="#2a45ff" fill-opacity="1"></use><g mask="url(#maskc3FaAz4uCu)"><use xlink:href="#aEH2hqMY1" opacity="1" fill-opacity="0" stroke="#000000" stroke-width="2" stroke-opacity="1"></use></g></g><g><use xlink:href="#b3WaWFI7k" opacity="1" fill="#ffffff" fill-opacity="1"></use><g mask="url(#maska1vWHbxLgk)"><use xlink:href="#b3WaWFI7k" opacity="1" fill-opacity="0" stroke="#000000" stroke-width="2" stroke-opacity="1"></use></g></g></g><g><g mask="url(#maske17LFcEq7h)"><use xlink:href="#avAnxRGmG" opacity="1" fill-opacity="0" stroke="#000000" stroke-width="2" stroke-opacity="1"></use></g></g><g><use xlink:href="#abjbVbNj4" opacity="1" fill="#ffffff" fill-opacity="1"></use><g mask="url(#maskcfB1vP4QJ)"><use xlink:href="#abjbVbNj4" opacity="1" fill-opacity="0" stroke="#000000" stroke-width="2" stroke-opacity="1"></use></g></g><g><g><use xlink:href="#c26ZCoFggp" opacity="1" fill="#69ea0a" fill-opacity="1"></use><g mask="url(#maskd4VWBlv7P1)"><use xlink:href="#c26ZCoFggp" opacity="1" fill-opacity="0" stroke="#000000" stroke-width="2" stroke-opacity="1"></use></g></g><g><use xlink:href="#b2QcSEEuuY" opacity="1" fill="#ffffff" fill-opacity="1"></use><g mask="url(#maskaJaQCZgqf)"><use xlink:href="#b2QcSEEuuY" opacity="1" fill-opacity="0" stroke="#000000" stroke-width="2" stroke-opacity="1"></use></g></g></g><g><use xlink:href="#d43HqQdipX" opacity="1" fill="#ffe900" fill-opacity="1"></use><g mask="url(#maskaqcYErh1r)"><use xlink:href="#d43HqQdipX" opacity="1" fill-opacity="0" stroke="#000000" stroke-width="2" stroke-opacity="1"></use></g></g><g><use xlink:href="#a1rIoJMAGD" opacity="1" fill="#ffffff" fill-opacity="1"></use><g mask="url(#maskenEyEs9kc)"><use xlink:href="#a1rIoJMAGD" opacity="1" fill-opacity="0" stroke="#000000" stroke-width="2" stroke-opacity="1"></use></g></g><g><use xlink:href="#c5Q5jrFMk6" opacity="1" fill="#1980ff" fill-opacity="1"></use><g mask="url(#maskb2agLHu499)"><use xlink:href="#c5Q5jrFMk6" opacity="1" fill-opacity="0" stroke="#000000" stroke-width="2" stroke-opacity="1"></use></g></g><g><use xlink:href="#a5VyHYzQU9" opacity="1" fill="#ffffff" fill-opacity="1"></use><g mask="url(#maskb104wSXZJB)"><use xlink:href="#a5VyHYzQU9" opacity="1" fill-opacity="0" stroke="#000000" stroke-width="2" stroke-opacity="1"></use></g></g><g><use xlink:href="#g2Fr2Xr344" opacity="1" fill="#68d50b" fill-opacity="1"></use><g mask="url(#maskb3rLWT2iEi)"><use xlink:href="#g2Fr2Xr344" opacity="1" fill-opacity="0" stroke="#000000" stroke-width="2" stroke-opacity="1"></use></g></g><g><g><use xlink:href="#bJIYJR2mR" opacity="1" fill="#ef2b04" fill-opacity="1"></use><g mask="url(#maskdMBmly7GB)"><use xlink:href="#bJIYJR2mR" opacity="1" fill-opacity="0" stroke="#000000" stroke-width="2" stroke-opacity="1"></use></g></g><g><use xlink:href="#aIy0tL3Zt" opacity="1" fill="#ffffff" fill-opacity="1"></use><g mask="url(#maskd3wnqRnXOh)"><use xlink:href="#aIy0tL3Zt" opacity="1" fill-opacity="0" stroke="#000000" stroke-width="2" stroke-opacity="1"></use></g></g><g><use xlink:href="#b3wflGUnsN" opacity="1" fill="#ffffff" fill-opacity="1"></use><g mask="url(#maskf8t9vV0v)"><use xlink:href="#b3wflGUnsN" opacity="1" fill-opacity="0" stroke="#000000" stroke-width="2" stroke-opacity="1"></use></g></g><g><use xlink:href="#a7piWQZ7ZG" opacity="1" fill="#ef2b04" fill-opacity="1"></use><g mask="url(#maskedelQWfRv)"><use xlink:href="#a7piWQZ7ZG" opacity="1" fill-opacity="0" stroke="#000000" stroke-width="2" stroke-opacity="1"></use></g></g></g><g><use xlink:href="#a5tu9xj7Eg" opacity="1" fill="#ffde00" fill-opacity="1"></use><g mask="url(#maski2GfgJDGZ7)"><use xlink:href="#a5tu9xj7Eg" opacity="1" fill-opacity="0" stroke="#000000" stroke-width="2" stroke-opacity="1"></use></g></g></g></g></svg>