<?xml version="1.0" encoding="UTF-8" standalone="no"?>
<!DOCTYPE svg PUBLIC "-//W3C//DTD SVG 1.1//EN" "http://www.w3.org/Graphics/SVG/1.1/DTD/svg11.dtd">
<svg version="1.1" xmlns="http://www.w3.org/2000/svg" xmlns:xlink="http://www.w3.org/1999/xlink" preserveAspectRatio="xMidYMid meet" viewBox="0 0 200 175" width="200" height="175"><defs><path d="M196.44 87.34C192.52 121.08 167.23 144.81 139.35 152.3C114.99 158.84 107.03 121.44 98.41 143.03C92.67 157.42 67.17 167.65 21.93 173.71C26.98 171.05 31.35 168.6 35.05 166.38C35.37 166.19 35.69 165.99 36.01 165.8C51.46 156.37 54.3 151.06 44.55 149.84C32.34 148.33 21.21 153.25 11.16 164.62L5.77 141.66L12.23 127.6C2.86 103.42 -1.12 90.7 0.27 89.46C0.33 89.4 0.41 89.37 0.5 89.36C3.38 89.15 19.83 113.94 32.02 109.92C44.59 105.76 62.19 85.59 50.05 70.34C34.97 51.41 28.21 28.24 29.77 0.84C51.28 34.71 69.47 49.84 84.33 46.24C84.86 46.11 85.46 45.8 86.1 45.35C89.03 43.32 92.85 38.54 94.79 35.98C96.71 33.45 98.93 29.18 101.44 23.19C98.01 9.48 97 1.76 98.41 0.03C98.76 -0.39 102.81 3.43 110.56 11.51C111.46 12.44 112.94 12.48 113.89 11.59C114.52 11 115.07 10.5 115.53 10.11C122.84 3.97 130.57 3.76 147.45 8.84C177.61 17.94 200.36 53.61 196.44 87.34Z" id="c4Wz6tuPiP"></path><path d="M78.74 104.25C81.74 109.92 77.91 116.21 67.24 123.14L58.74 118.64L70.24 104.25C72.91 98.58 75.74 98.58 78.74 104.25Z" id="b4aHqkCc5c"></path></defs><g><g><g><g><use xlink:href="#c4Wz6tuPiP" opacity="1" fill="#7bb77d" fill-opacity="1"></use></g><g><use xlink:href="#b4aHqkCc5c" opacity="1" fill="#ffffff" fill-opacity="1"></use></g></g></g></g></svg>